<svg width="49" height="49" viewBox="0 0 49 49" fill="none" xmlns="http://www.w3.org/2000/svg">
<path d="M48.4097 24.4434C48.4097 11.1882 37.6648 0.443359 24.4097 0.443359C11.1546 0.443359 0.409668 11.1882 0.409668 24.4434C0.409668 36.422 9.18478 46.3527 20.6586 48.1518V31.3802H14.5643V24.4434H20.6586V19.1562C20.6586 13.1402 24.2426 9.81936 29.7252 9.81936C32.3528 9.81936 35.0977 10.2887 35.0977 10.2887V16.1945H32.0719C29.0923 16.1945 28.1608 18.0434 28.1608 19.942V24.4434H34.8168L33.7537 31.3802H28.1608V48.1518C39.6346 46.3527 48.4097 36.422 48.4097 24.4434Z" fill="#4676ED"/>
<path d="M33.7501 31.3812L34.8132 24.4443H28.1572V19.943C28.1572 18.0443 29.0852 16.1954 32.0683 16.1954H35.0941V10.2896C35.0941 10.2896 32.3492 9.82031 29.7217 9.82031C24.239 9.82031 20.655 13.1412 20.655 19.1572V24.4443H14.5608V31.3812H20.655V48.1528C21.8781 48.3448 23.1297 48.4443 24.4061 48.4443C25.6826 48.4443 26.9341 48.3448 28.1572 48.1528V31.3812H33.7501Z" fill="white"/>
</svg>
