<svg width="49" height="49" viewBox="0 0 49 49" fill="none" xmlns="http://www.w3.org/2000/svg">
<path d="M24.7952 48.4433C38.05 48.4433 48.7952 37.6982 48.7952 24.4433C48.7952 11.1885 38.05 0.443359 24.7952 0.443359C11.5403 0.443359 0.795166 11.1885 0.795166 24.4433C0.795166 37.6982 11.5403 48.4433 24.7952 48.4433Z" fill="#DA0000"/>
<path d="M40.1267 16.7428C39.7605 15.3668 38.676 14.2824 37.2965 13.9126C34.8005 13.2441 24.7952 13.2441 24.7952 13.2441C24.7952 13.2441 14.7898 13.2441 12.2938 13.9126C10.9178 14.2824 9.83339 15.3632 9.46361 16.7428C8.79517 19.2388 8.79517 24.4441 8.79517 24.4441C8.79517 24.4441 8.79517 29.6495 9.46361 32.1455C9.82983 33.5215 10.9143 34.6059 12.2938 34.9757C14.7898 35.6441 24.7952 35.6441 24.7952 35.6441C24.7952 35.6441 34.8005 35.6441 37.2965 34.9757C38.6725 34.6059 39.7569 33.525 40.1267 32.1455C40.7952 29.6495 40.7952 24.4441 40.7952 24.4441C40.7952 24.4441 40.7952 19.2388 40.1267 16.7428ZM21.5952 29.2441V19.6441L29.9081 24.4441L21.5952 29.2441Z" fill="white"/>
</svg>
