<svg width="49" height="49" viewBox="0 0 49 49" fill="none" xmlns="http://www.w3.org/2000/svg">
<path d="M24.5903 48.3847C37.8452 48.3847 48.5903 37.6396 48.5903 24.3848C48.5903 11.1299 37.8452 0.384766 24.5903 0.384766C11.3355 0.384766 0.590332 11.1299 0.590332 24.3848C0.590332 37.6396 11.3355 48.3847 24.5903 48.3847Z" fill="#FEFB00"/>
<path d="M14.4821 18.7787C14.4821 18.6898 14.4821 18.6223 14.4821 18.5547C14.4856 18.1281 14.4821 17.7014 14.4963 17.2747C14.5318 16.3467 14.6243 15.4223 14.8447 14.5156C15.1398 13.3103 15.6661 12.2258 16.4305 11.2481C17.7887 9.50585 19.5594 8.39651 21.6749 7.8134C22.7949 7.50407 23.9434 7.40452 25.1025 7.44363C26.3398 7.4863 27.5416 7.7174 28.6972 8.17252C29.9096 8.64896 30.9976 9.32807 31.9363 10.2347C32.4732 10.7538 32.9389 11.3299 33.3407 11.9556C33.9665 12.9263 34.3469 13.993 34.5532 15.1236C34.7274 16.0694 34.7807 17.0258 34.7878 17.9894C34.7878 18.2454 34.7878 18.4978 34.7878 18.7432C34.8412 18.7965 34.8838 18.761 34.9229 18.7538C35.2856 18.6792 35.6483 18.6365 36.018 18.6543C36.5051 18.6792 36.9674 18.793 37.3941 19.0276C38.1514 19.4472 38.6278 20.0836 38.8234 20.9263C39.0509 21.9112 38.8198 22.7965 38.1976 23.5823C37.8918 23.9663 37.522 24.2827 37.1167 24.5565C36.7825 24.7841 36.4412 25.001 36.1034 25.225C35.9647 25.3138 35.826 25.4063 35.6909 25.4952C35.6483 25.5236 35.602 25.5521 35.5629 25.5841C35.3496 25.7512 35.2998 25.897 35.3816 26.153C35.4065 26.2383 35.4492 26.3201 35.4883 26.3983C35.9292 27.2978 36.5265 28.0801 37.2483 28.7698C38.034 29.5236 38.9229 30.1281 39.8865 30.6258C40.146 30.761 40.4056 30.8925 40.6616 31.0347C40.8856 31.1592 41.0918 31.3085 41.2732 31.4898C41.6465 31.8667 41.8527 32.3254 41.8812 32.8552C41.9061 33.3103 41.7709 33.7298 41.5256 34.1103C41.2554 34.5263 40.9069 34.8605 40.4838 35.1165C40.1425 35.3227 39.7869 35.497 39.4243 35.6534C39.0438 35.817 38.6563 35.9485 38.2581 36.0623C38.1229 36.1014 37.9878 36.1476 37.8527 36.1974C37.6998 36.2543 37.5896 36.3645 37.5221 36.5174C37.4829 36.6063 37.4438 36.6952 37.4083 36.7876C37.0705 37.6587 36.4376 38.1885 35.5345 38.4018C35.1967 38.4836 34.8554 38.5121 34.5105 38.5298C34.13 38.5512 33.7461 38.5583 33.3656 38.5832C32.7576 38.6223 32.1603 38.7254 31.5807 38.9103C31.3283 38.9885 31.0936 39.0987 30.866 39.2338C30.5603 39.4116 30.2616 39.593 29.9594 39.7778C29.4332 40.0978 28.8998 40.3965 28.3309 40.6383C27.5416 40.9725 26.7203 41.1929 25.8634 41.2925C25.1167 41.3814 24.3665 41.3885 23.6198 41.3138C22.4749 41.2001 21.3905 40.8765 20.3665 40.3503C19.9469 40.1334 19.5416 39.8916 19.1398 39.6463C18.9656 39.5396 18.7914 39.4401 18.6207 39.3298C18.1123 39.0098 17.5541 38.8285 16.9674 38.7147C16.3772 38.5974 15.7798 38.5618 15.1789 38.5405C14.7807 38.5263 14.3861 38.5085 13.9914 38.4445C13.6927 38.3947 13.4083 38.313 13.1381 38.1778C12.5763 37.9005 12.1781 37.4703 11.9327 36.8978C11.8865 36.7876 11.8438 36.6738 11.8012 36.5636C11.7265 36.3716 11.5914 36.2365 11.3958 36.1689C11.2749 36.1298 11.1541 36.0907 11.0332 36.0552C10.3398 35.8561 9.67139 35.593 9.04206 35.2445C8.62606 35.0134 8.25273 34.729 7.95406 34.3521C7.74073 34.0854 7.57362 33.7938 7.48828 33.4632C7.31051 32.7485 7.47405 32.1121 7.95761 31.561C8.11761 31.3796 8.30961 31.2338 8.51227 31.1058C8.72916 30.9707 8.95317 30.8534 9.18072 30.7396C10.0021 30.3343 10.7772 29.8507 11.4847 29.2641C12.3203 28.5778 13.0314 27.7814 13.5683 26.8392C13.6643 26.6721 13.7496 26.4943 13.8385 26.3201C13.8918 26.2205 13.9203 26.1103 13.9345 26.0001C13.9523 25.8827 13.9167 25.7761 13.8385 25.6872C13.7638 25.6018 13.6714 25.5378 13.5754 25.4774C13.1238 25.1823 12.6723 24.8872 12.2207 24.5885C11.9327 24.4001 11.6625 24.1832 11.4136 23.9414C11.0403 23.5752 10.7416 23.1592 10.5567 22.665C10.1443 21.5627 10.4181 20.2898 11.2429 19.4863C11.6909 19.049 12.2314 18.793 12.8465 18.6863C13.3265 18.6045 13.8029 18.6223 14.2758 18.729C14.3327 18.7432 14.3932 18.7538 14.4821 18.7716V18.7787Z" fill="black"/>
<path d="M32.8573 18.7441C32.8502 19.4054 32.8182 20.0632 32.7684 20.721C32.7613 20.8347 32.7577 20.945 32.7542 21.0587C32.7506 21.3041 32.8893 21.4036 33.1346 21.3823C33.2235 21.3752 33.3124 21.3503 33.3977 21.3218C33.636 21.2365 33.8742 21.1476 34.1124 21.0587C34.5106 20.9058 34.9089 20.7565 35.3284 20.6605C35.6093 20.5965 35.8866 20.561 36.1746 20.6285C36.8217 20.7778 37.156 21.4214 36.9071 22.0365C36.8431 22.2001 36.7435 22.3387 36.6262 22.4667C36.4591 22.6516 36.2706 22.8081 36.0644 22.9503C35.8226 23.1138 35.5773 23.2738 35.3355 23.4338C34.9302 23.7005 34.5213 23.9672 34.116 24.2374C33.9489 24.3512 33.7853 24.4685 33.6253 24.593C33.5364 24.6605 33.4546 24.7387 33.38 24.8241C33.2271 24.9947 33.156 25.1938 33.1702 25.4214C33.1844 25.6383 33.2235 25.8516 33.284 26.0614C33.476 26.737 33.7711 27.3663 34.1302 27.9636C34.7915 29.0694 35.6448 30.0081 36.6404 30.8187C37.4866 31.5085 38.4111 32.0738 39.3889 32.5538C39.4777 32.5965 39.5631 32.6427 39.6448 32.6925C39.7088 32.7316 39.7657 32.7814 39.8084 32.8454C39.876 32.9378 39.8831 33.0374 39.8262 33.1405C39.78 33.2294 39.7089 33.2969 39.6342 33.3574C39.524 33.4498 39.3995 33.521 39.2751 33.5885C38.7204 33.8907 38.1302 34.1041 37.5222 34.2676C37.2626 34.3387 37.0031 34.4134 36.7435 34.4881C36.5622 34.5414 36.3951 34.6196 36.228 34.7049C35.9471 34.8507 35.7871 35.0818 35.7302 35.3876C35.6982 35.5583 35.6769 35.7289 35.6484 35.8961C35.5702 36.3227 35.4173 36.4792 34.9977 36.5538C34.852 36.5787 34.6991 36.5929 34.5498 36.6036C34.1764 36.6249 33.7995 36.6356 33.4262 36.6569C32.5764 36.7032 31.7444 36.8347 30.9337 37.1014C30.5924 37.2152 30.2617 37.3609 29.9524 37.5387C29.6217 37.7272 29.2946 37.9263 28.9675 38.1254C28.4484 38.4383 27.9222 38.7369 27.3533 38.9574C26.7204 39.2027 26.0662 39.3485 25.3906 39.409C24.8218 39.4623 24.2529 39.4516 23.684 39.3876C22.8342 39.2916 22.0306 39.0463 21.2697 38.6552C20.9177 38.4738 20.5764 38.2712 20.2351 38.065C19.9862 37.9121 19.7373 37.7627 19.4849 37.6134C18.8875 37.2578 18.2404 37.0303 17.5613 36.8809C16.9462 36.7458 16.3204 36.6712 15.6911 36.6498C15.3604 36.6356 15.0333 36.6249 14.7026 36.6036C14.5142 36.5929 14.3293 36.5681 14.148 36.5218C13.892 36.4543 13.7284 36.2978 13.6751 36.0383C13.6466 35.8925 13.6218 35.7432 13.5969 35.5974C13.5933 35.569 13.5898 35.537 13.5862 35.5085C13.5293 35.1174 13.3373 34.8294 12.9675 34.6623C12.74 34.5592 12.5089 34.4774 12.2706 34.4098C11.8582 34.2961 11.4458 34.1965 11.044 34.0507C10.692 33.9227 10.3471 33.7734 10.02 33.5956C9.92042 33.5423 9.82442 33.4818 9.73198 33.4214C9.67153 33.3787 9.61108 33.3325 9.5613 33.2792C9.3693 33.0801 9.38708 32.8987 9.60397 32.7281C9.71064 32.6463 9.83509 32.5894 9.95598 32.5289C10.8129 32.1094 11.6235 31.6152 12.3809 31.0356C13.4582 30.2036 14.3826 29.2294 15.0973 28.0667C15.4778 27.4445 15.7906 26.7903 15.9933 26.0898C16.0573 25.8658 16.1035 25.6383 16.1106 25.4072C16.1213 25.1761 16.0431 24.9805 15.8902 24.8134C15.7977 24.7138 15.6946 24.6285 15.588 24.5467C15.2751 24.3121 14.9515 24.0987 14.6244 23.8854C14.212 23.6152 13.796 23.345 13.3835 23.0747C13.1773 22.9396 12.9782 22.7938 12.7969 22.6232C12.6653 22.4987 12.548 22.3636 12.4555 22.2072C12.26 21.8801 12.2457 21.5423 12.3951 21.1938C12.4982 20.9556 12.6724 20.7885 12.9142 20.6961C13.1809 20.593 13.4546 20.5823 13.732 20.6285C14.0591 20.6818 14.372 20.7814 14.6813 20.8952C14.9977 21.009 15.3106 21.1334 15.6271 21.2507C15.7729 21.3076 15.9222 21.361 16.0786 21.3858C16.1142 21.393 16.1533 21.4036 16.1889 21.4001C16.3702 21.393 16.5195 21.3361 16.5195 21.0907C16.5195 20.8881 16.5089 20.6854 16.4946 20.4827C16.42 19.3912 16.3915 18.2961 16.4377 17.201C16.4662 16.5041 16.5373 15.8107 16.6937 15.1281C16.9106 14.1787 17.3053 13.3183 17.892 12.5396C18.98 11.1032 20.4129 10.1965 22.1302 9.71295C23.0689 9.44984 24.0289 9.36095 24.9995 9.39295C26.0271 9.42495 27.0226 9.61696 27.9791 9.98674C28.8893 10.3387 29.7178 10.8294 30.436 11.4943C31.3391 12.3334 32.0324 13.3147 32.4093 14.5058C32.58 15.0427 32.6866 15.5938 32.7542 16.1521C32.8573 17.0161 32.8609 17.8872 32.8537 18.7547L32.8573 18.7441Z" fill="white"/>
</svg>
