<svg width="48" height="49" viewBox="0 0 48 49" fill="none" xmlns="http://www.w3.org/2000/svg">
<path d="M24 48.4433C37.2548 48.4433 48 37.6982 48 24.4433C48 11.1885 37.2548 0.443359 24 0.443359C10.7452 0.443359 0 11.1885 0 24.4433C0 37.6982 10.7452 48.4433 24 48.4433Z" fill="#5A99EC"/>
<path d="M19.1503 38.2679C30.8729 38.2679 37.2836 28.5577 37.2836 20.1345C37.2836 19.8572 37.2765 19.5834 37.2658 19.3097C38.5103 18.4101 39.5911 17.2865 40.4445 16.0101C39.3031 16.5185 38.0729 16.8599 36.7858 17.0128C38.1014 16.2234 39.1111 14.9754 39.5876 13.4892C38.3574 14.2181 36.992 14.7514 35.5414 15.0359C34.3787 13.7985 32.7218 13.0234 30.8907 13.0234C27.3707 13.0234 24.5156 15.8785 24.5156 19.395C24.5156 19.8963 24.5725 20.3799 24.6827 20.8492C19.3849 20.5825 14.6881 18.0474 11.5485 14.1897C11.0009 15.1319 10.6845 16.227 10.6845 17.3932C10.6845 19.6048 11.8081 21.5568 13.5218 22.6981C12.4765 22.6661 11.4952 22.3781 10.6347 21.9017C10.6347 21.9265 10.6347 21.955 10.6347 21.9834C10.6347 25.0697 12.8321 27.6474 15.7476 28.2305C15.2107 28.3763 14.6489 28.4545 14.0694 28.4545C13.6605 28.4545 13.2587 28.4154 12.8712 28.3408C13.6818 30.8723 16.0356 32.7141 18.8232 32.7674C16.64 34.4777 13.8952 35.4945 10.9085 35.4945C10.393 35.4945 9.88805 35.4661 9.38672 35.4056C12.2063 37.2119 15.5556 38.2679 19.1538 38.2679" fill="white"/>
</svg>
